HIERARCHY
ROOT Hips
{
	OFFSET 0.000000 0.000000 0.000000
	CHANNELS 6 Xposition Yposition Zposition Zrotation Yrotation Xrotation 
	JOINT LHipJoint
	{
		OFFSET 0.000000 0.000000 0.000000
		CHANNELS 3 Zrotation Yrotation Xrotation
		JOINT LeftUpLeg
		{
			OFFSET 1.363060 -1.794630 0.839290
			CHANNELS 3 Zrotation Yrotation Xrotation
			JOINT LeftLeg
			{
				OFFSET 2.448110 -6.726130 0.000000
				CHANNELS 3 Zrotation Yrotation Xrotation
				JOINT LeftFoot
				{
					OFFSET 2.562200 -7.039590 0.000000
					CHANNELS 3 Zrotation Yrotation Xrotation
					JOINT LeftToeBase
					{
						OFFSET 0.157640 -0.433110 2.322550
						CHANNELS 3 Zrotation Yrotation Xrotation
						End Site
						{
							OFFSET 0.000000 0.000000 0.000000
						}
					}
				}
			}
		}
	}
	JOINT RHipJoint
	{
		OFFSET 0.000000 0.000000 0.000000
		CHANNELS 3 Zrotation Yrotation Xrotation
		JOINT RightUpLeg
		{
			OFFSET -1.305520 -1.794630 0.839290
			CHANNELS 3 Zrotation Yrotation Xrotation
			JOINT RightLeg
			{
				OFFSET -2.542530 -6.985550 0.000000
				CHANNELS 3 Zrotation Yrotation Xrotation
				JOINT RightFoot
				{
					OFFSET -2.568260 -7.056230 0.000000
					CHANNELS 3 Zrotation Yrotation Xrotation
					JOINT RightToeBase
					{
						OFFSET -0.164730 -0.452590 2.363150
						CHANNELS 3 Zrotation Yrotation Xrotation
						End Site
						{
							OFFSET 0.000000 0.000000 0.000000
						}
					}
				}
			}
		}
	}
	JOINT LowerBack
	{
		OFFSET 0.000000 0.000000 0.000000
		CHANNELS 3 Zrotation Yrotation Xrotation
		JOINT Spine
		{
			OFFSET 0.028270 2.035590 -0.193380
			CHANNELS 3 Zrotation Yrotation Xrotation
			JOINT Spine1
			{
				OFFSET 0.056720 2.048850 -0.042750
				CHANNELS 3 Zrotation Yrotation Xrotation
				JOINT Neck
				{
					OFFSET 0.000000 0.000000 0.000000
					CHANNELS 3 Zrotation Yrotation Xrotation
					JOINT Neck1
					{
						OFFSET -0.054170 1.746240 0.172020
						CHANNELS 3 Zrotation Yrotation Xrotation
						JOINT Head
						{
							OFFSET 0.104070 1.761360 -0.123970
							CHANNELS 3 Zrotation Yrotation Xrotation
							End Site
							{
								OFFSET 0.000000 0.000000 0.000000
							}
						}
					}
				}
				JOINT LeftShoulder
				{
					OFFSET 0.000000 0.000000 0.000000
					CHANNELS 3 Zrotation Yrotation Xrotation
					JOINT LeftArm
					{
						OFFSET 3.362410 1.200890 -0.311210
						CHANNELS 3 Zrotation Yrotation Xrotation
						JOINT LeftForeArm
						{
							OFFSET 4.983000 -0.000000 -0.000000
							CHANNELS 3 Zrotation Yrotation Xrotation
							JOINT LeftHand
							{
								OFFSET 3.483560 -0.000000 -0.000000
								CHANNELS 3 Zrotation Yrotation Xrotation
								JOINT LeftFingerBase
								{
									OFFSET 0.000000 0.000000 0.000000
									CHANNELS 3 Zrotation Yrotation Xrotation
									JOINT LeftHandIndex1
									{
										OFFSET 0.715260 -0.000000 -0.000000
										CHANNELS 3 Zrotation Yrotation Xrotation
										End Site
										{
											OFFSET 0.000000 0.000000 0.000000
										}
									}
								}
								JOINT LThumb
								{
									OFFSET 0.000000 0.000000 0.000000
									CHANNELS 3 Zrotation Yrotation Xrotation
									End Site
									{
										OFFSET 0.000000 0.000000 0.000000
									}
								}
							}
						}
					}
				}
				JOINT RightShoulder
				{
					OFFSET 0.000000 0.000000 0.000000
					CHANNELS 3 Zrotation Yrotation Xrotation
					JOINT RightArm
					{
						OFFSET -3.136600 1.374050 -0.404650
						CHANNELS 3 Zrotation Yrotation Xrotation
						JOINT RightForeArm
						{
							OFFSET -5.241900 -0.000000 -0.000000
							CHANNELS 3 Zrotation Yrotation Xrotation
							JOINT RightHand
							{
								OFFSET -3.444170 -0.000000 -0.000000
								CHANNELS 3 Zrotation Yrotation Xrotation
								JOINT RightFingerBase
								{
									OFFSET 0.000000 0.000000 0.000000
									CHANNELS 3 Zrotation Yrotation Xrotation
									JOINT RightHandIndex1
									{
										OFFSET -0.622530 -0.000000 -0.000000
										CHANNELS 3 Zrotation Yrotation Xrotation
										End Site
										{
											OFFSET 0.000000 0.000000 0.000000
										}
									}
								}
								JOINT RThumb
								{
									OFFSET 0.000000 0.000000 0.000000
									CHANNELS 3 Zrotation Yrotation Xrotation
									End Site
									{
										OFFSET 0.000000 0.000000 0.000000
									}
								}
							}
						}
					}
				}
			}
		}
	}
}
MOTION
Frames: 9
Frame Time: 0.008333
6.979277 15.011778 6.588964 -16.659347 -54.636584 30.561681 -0.787473 -4.285100 -4.194306 -11.628790 6.175205 -75.562253 15.855433 19.059363 76.124874 2.524062 -1.574147 2.959843 0.608400 -4.992700 -13.887700 1.305134 2.267977 -2.361758 -15.243390 -0.522042 -16.455950 -3.097391 -8.617611 24.149428 11.839069 -31.192971 3.022821 -2.023700 -8.915200 25.530600 -1.580545 4.543886 19.213360 0.188112 5.651728 1.920787 1.197953 2.806482 0.622582 -4.514073 -8.638901 -7.251144 11.082879 -12.103843 -1.946337 4.584100 -5.868800 -1.239200 -12.371320 -12.976021 2.368459 -20.749205 -22.398995 -2.747817 6.561728 -16.488963 -5.146472 -2.970244 4.955326 10.913957 54.462920 -23.891759 -37.835700 -7.125000 0.000000 0.000000 15.375100 -14.592400 -19.358000 14.896460 13.080692 2.003898 17.851941 27.576601 0.044881 -6.091438 15.924750 -3.654509 6.075267 2.482460 8.082253 -28.137372 -28.596600 18.780600 7.125000 0.000000 0.000000 -3.227400 -65.400900 1.591800 
7.027623 15.034679 6.492049 -16.693678 -54.479740 31.137484 -0.791565 -4.316869 -4.386947 -11.449045 6.106750 -76.076837 15.622445 19.019723 75.461174 2.477271 -1.496717 3.654501 0.583900 -4.892800 -13.603100 1.454615 2.073192 -1.860194 -14.417007 -1.653000 -14.929333 -3.034111 -8.698070 24.237679 11.611435 -30.884410 3.405491 -1.971000 -8.805300 25.188300 -1.630369 4.860520 19.081451 0.062642 6.002745 1.907401 1.061989 3.021994 0.443732 -4.405646 -9.062821 -7.245795 11.320439 -12.690883 -2.045919 4.758400 -6.149000 -1.203100 -12.593875 -13.122390 2.503139 -18.877294 -20.904043 -4.587222 6.085046 -16.082478 -4.945694 -3.271753 5.100023 10.973930 53.946879 -23.751171 -37.419900 -7.125000 0.000000 0.000000 15.344100 -14.179400 -19.238300 14.948270 13.300954 1.767548 16.140219 27.509649 -0.314991 -5.903076 15.922874 -3.555596 6.100983 2.695557 7.833846 -27.451377 -28.418127 18.366400 7.125000 0.000000 0.000000 -2.281100 -65.267200 1.117700 
7.076744 15.060678 6.390599 -16.749541 -54.281891 31.711872 -0.794212 -4.358047 -4.579982 -11.220895 6.006955 -76.530324 15.372197 18.973182 74.736475 2.382726 -1.298939 4.334773 0.585200 -4.897900 -13.617700 1.636239 1.910903 -1.367301 -13.510759 -2.836528 -13.433682 -2.960054 -8.792669 24.321330 11.348221 -30.546844 3.839665 -1.897700 -8.649700 24.705500 -1.608123 5.227020 18.996258 -0.127005 6.423879 1.879218 0.764952 3.271994 0.238218 -4.093061 -9.544115 -7.161267 11.585034 -13.358638 -2.200882 4.918300 -6.477500 -1.204200 -12.803293 -13.252198 2.612320 -16.940820 -19.515226 -5.967984 5.693398 -15.745700 -4.756121 -3.604818 5.230383 10.710779 53.381444 -23.660411 -37.004800 -7.125000 0.000000 0.000000 15.269500 -13.803200 -19.067000 15.005550 13.500609 1.582138 14.614070 27.275703 -0.924697 -5.673727 15.875868 -3.455572 6.117332 2.906516 7.700767 -26.700838 -28.242109 17.911800 7.125000 0.000000 0.000000 -1.232300 -65.126900 0.599700 
7.126972 15.088779 6.285387 -16.823070 -54.073117 32.293432 -0.804402 -4.406314 -4.773807 -10.954491 5.892578 -76.943703 15.108123 18.921001 73.958128 2.241264 -0.981139 5.007600 0.609600 -4.997300 -13.900900 1.833936 1.784371 -0.903992 -12.524054 -4.104355 -11.993385 -2.888363 -8.901415 24.404225 11.072953 -30.256252 4.394523 -1.769000 -8.367300 23.835300 -1.713591 5.545996 18.883698 -0.253659 6.771246 1.871610 0.713351 3.478975 0.064637 -4.064667 -9.916082 -7.063662 12.220646 -13.878308 -2.553710 4.748200 -6.739600 -1.077500 -13.005052 -13.382383 2.753548 -15.196225 -18.132633 -7.527227 5.315945 -15.371863 -4.572695 -3.948956 5.359217 10.393831 52.765476 -23.561491 -36.543900 -7.125000 0.000000 0.000000 15.170900 -13.397400 -18.858000 15.041554 13.670038 1.363084 13.095591 27.080573 -1.173696 -5.488688 15.896691 -3.360196 6.115384 3.166047 7.355787 -25.988261 -28.155820 17.532100 7.125000 0.000000 0.000000 -0.179400 -65.113300 0.087300 
7.178526 15.118429 6.177299 -16.924579 -53.859797 32.897045 -0.814979 -4.460637 -4.963623 -10.661598 5.764434 -77.333540 14.831554 18.859720 73.128422 2.059733 -0.558913 5.676670 0.656000 -5.180300 -14.423600 2.049215 1.692753 -0.474080 -11.466453 -5.462237 -10.629687 -2.826608 -9.026192 24.495698 10.797104 -30.047277 5.086195 -1.556600 -7.874000 22.332200 -1.809219 5.869844 18.762208 -0.395667 7.128449 1.872433 0.640204 3.684875 -0.066528 -3.992378 -10.301659 -7.015209 12.533060 -14.412889 -2.755571 4.937300 -6.993800 -1.061600 -13.180465 -13.492861 2.878520 -13.504391 -16.871893 -8.986683 4.995406 -15.023420 -4.400377 -4.299884 5.471133 9.976422 52.082935 -23.423646 -35.979400 -7.125000 0.000000 0.000000 15.044300 -12.903000 -18.595000 15.073260 13.835637 1.163624 11.666388 26.827770 -1.396916 -5.313679 15.932570 -3.276565 6.106047 3.459700 6.872049 -25.346193 -28.150709 17.242100 7.125000 0.000000 0.000000 0.823300 -65.218000 -0.402400 
7.231852 15.149738 6.066334 -17.040726 -53.654292 33.520387 -0.822274 -4.520945 -5.145368 -10.357040 5.617373 -77.707094 14.540794 18.787020 72.240067 1.843666 -0.043999 6.350846 0.726700 -5.446900 -15.187700 2.277990 1.635165 -0.081038 -10.358376 -6.879154 -9.353712 -2.778194 -9.166917 24.608398 10.524160 -29.918066 5.884348 -1.249300 -7.086600 19.972100 -1.872818 6.215940 18.638047 -0.582447 7.518940 1.870764 0.470398 3.904411 -0.171567 -3.788188 -10.696486 -6.995767 12.834480 -14.957084 -2.997574 5.102300 -7.256200 -1.062600 -13.330817 -13.591335 2.979338 -11.815094 -15.752636 -10.290132 4.734068 -14.716219 -4.240600 -4.649071 5.571143 9.506004 51.371332 -23.304598 -35.403500 -7.125000 0.000000 0.000000 14.888400 -12.418800 -18.296100 15.102226 13.989011 1.004910 10.374270 26.502443 -1.689725 -5.136196 15.958337 -3.207509 6.094672 3.771541 6.334235 -24.763125 -28.220002 17.026500 7.125000 0.000000 0.000000 1.790900 -65.422200 -0.883900 
7.286947 15.183038 5.952935 -17.149255 -53.472609 34.163201 -0.833127 -4.587098 -5.320687 -10.040066 5.443980 -78.072089 14.233965 18.704442 71.288596 1.604247 0.537950 7.051148 0.814300 -5.758400 -16.085000 2.504749 1.614702 0.264981 -9.211563 -8.317964 -8.170649 -2.743546 -9.321339 24.753239 10.237078 -29.815380 6.777268 -0.876100 -5.967500 16.690200 -2.077355 6.502575 18.450804 -0.720397 7.821669 1.876350 0.517823 4.075452 -0.236895 -3.806659 -10.989404 -7.000228 13.128678 -15.360621 -3.224564 5.300500 -7.439500 -1.040900 -13.465785 -13.667818 3.101519 -10.349832 -14.616912 -11.843380 4.492693 -14.383121 -4.096786 -4.971596 5.681258 9.220845 50.697680 -23.226011 -34.906100 -7.125000 0.000000 0.000000 14.731200 -12.017500 -18.012600 15.103312 14.116432 0.815193 9.152742 26.295040 -1.609875 -5.026926 16.059990 -3.149623 6.056332 4.107650 5.615317 -24.239195 -28.364507 16.872400 7.125000 0.000000 0.000000 2.748000 -65.716600 -1.375200 
7.344586 15.218219 5.837988 -17.252662 -53.294459 34.829685 -0.839455 -4.659739 -5.485334 -9.696080 5.213954 -78.425490 13.912157 18.610872 70.275366 1.347769 1.174418 7.781484 0.909100 -6.075800 -17.004400 2.734412 1.629536 0.574459 -8.028778 -9.754618 -7.086660 -2.715198 -9.485038 24.935468 9.890084 -29.600570 7.740000 -0.534000 -4.682500 13.005200 -2.245424 6.796704 18.249227 -0.904279 8.141429 1.863608 0.459895 4.254107 -0.295590 -3.692601 -11.284582 -7.008652 13.395956 -15.762324 -3.476543 5.469400 -7.625900 -1.038600 -13.576467 -13.725348 3.198007 -8.918916 -13.603478 -13.293762 4.304462 -14.090716 -3.970490 -5.270165 5.793169 9.065467 50.077435 -23.157915 -34.468600 -7.125000 0.000000 0.000000 14.590200 -11.665000 -17.760700 15.102210 14.225620 0.672092 8.100701 26.046838 -1.571273 -4.927336 16.149244 -3.104008 6.009817 4.429038 4.901220 -23.742353 -28.499748 16.719200 7.125000 0.000000 0.000000 3.670300 -65.988800 -1.860300 
7.403222 15.255945 5.721270 -17.398962 -53.142074 35.547808 -0.838435 -4.736234 -5.638255 -9.293465 4.955230 -78.749830 13.577667 18.501793 69.200566 1.074553 1.865851 8.528555 1.000000 -6.363700 -17.843400 2.971632 1.680367 0.854597 -6.795787 -11.111854 -6.093877 -2.682884 -9.652977 25.146797 9.457227 -29.184960 8.763715 -0.285100 -3.434200 9.489900 -2.346181 7.148010 18.049890 -1.166374 8.545497 1.824340 0.205619 4.472707 -0.360386 -3.317441 -11.634243 -6.979052 13.658922 -16.231699 -3.786543 5.599100 -7.857200 -1.082000 -13.657322 -13.768159 3.253694 -7.438584 -12.762682 -14.465918 4.183926 -13.876798 -3.863030 -5.552478 5.897329 8.972060 49.526073 -23.079108 -34.081600 -7.125000 0.000000 0.000000 14.482100 -11.337800 -17.557100 15.114611 14.320120 0.608566 7.248222 25.692486 -1.764360 -4.802265 16.174116 -3.067911 5.974851 4.704751 4.329023 -23.275179 -28.555933 16.539400 7.125000 0.000000 0.000000 4.482500 -66.154400 -2.289700 
